<svg xmlns="http://www.w3.org/2000/svg" width="70" height="60">
<path d="M52.9635889,0.000209583191 L69.6465157,0.000209583191 L54.1479094,42.6849703 C53.7360627,43.8303424 52.6385017,44.6487648 51.3538328,44.6487648 L34.9719512,44.6487648 L34.9719512,44.6236148 C36.1238676,44.5072961 37.0844948,43.7381258 37.4649826,42.6849703 L52.9635889,0.000209583191 Z M33.6394077,43.9967515 C32.4833101,43.9967515 31.4934146,43.2967436 31.060662,42.2980797 L27.7219861,33.1151922 L33.4052613,17.4593278 C33.499338,17.1732467 33.7209408,16.8389615 33.7742509,16.7656074 C34.2843554,16.047785 35.119547,15.5793665 36.0644948,15.5793665 C37.2320906,15.5793665 38.2345296,16.2929973 38.6589199,17.3084279 L41.984007,26.4546383 L36.2986411,42.1167902 C36.1690244,42.4741296 35.9829617,42.7361086 35.9296516,42.8105106 C35.419547,43.5272851 34.5854007,43.9967515 33.6394077,43.9967515 Z M34.853101,14.9247334 L34.853101,14.9341647 C33.6227875,14.9855126 32.5806272,15.7787849 32.181324,16.88748 L16.6837631,59.5711928 L-0.000209059233,59.5711928 L15.4973519,16.88748 C15.9112892,15.7421079 17.0067596,14.9247334 18.2924739,14.9247334 L34.853101,14.9247334 Z" id="N" fill="#0090BA"></path>
</svg>
